<svg width="512" height="512" viewBox="0 0 512 512" fill="none" xmlns="http://www.w3.org/2000/svg">
  <rect width="512" height="512" rx="128" fill="#4F46E5"/>
  <path d="M128 160C128 142.327 142.327 128 160 128H352C369.673 128 384 142.327 384 160V352C384 369.673 369.673 384 352 384H160C142.327 384 128 369.673 128 352V160Z" fill="white" fill-opacity="0.2"/>
  <path d="M200 200H240V240H200V200Z" fill="white"/>
  <path d="M272 200H312V240H272V200Z" fill="white"/>
  <path d="M200 272H240V312H200V272Z" fill="white"/>
  <path d="M272 272H312V312H272V272Z" fill="white"/>
  <path d="M160 160V352M160 160H352M352 160V352M160 352H352" stroke="white" stroke-width="24" stroke-linecap="round" stroke-linejoin="round"/>
</svg>
